<mxfile host="65bd71144e">
    <diagram id="mgWypetcr1WGw46EbfIB" name="Page-1">
        <mxGraphModel dx="2393" dy="825" grid="1" gridSize="10" guides="1" tooltips="1" connect="1" arrows="1" fold="1" page="1" pageScale="1" pageWidth="1169" pageHeight="827" background="#FFFFFF" math="0" shadow="1">
            <root>
                <mxCell id="0"/>
                <mxCell id="1" parent="0"/>
                <mxCell id="12" value="&lt;b&gt;Parametros&lt;/b&gt;" style="swimlane;fontStyle=0;align=center;verticalAlign=top;childLayout=stackLayout;horizontal=1;startSize=30;horizontalStack=0;resizeParent=1;resizeParentMax=0;resizeLast=0;collapsible=0;marginBottom=0;html=1;strokeWidth=2;fillColor=#f9f7ed;strokeColor=#36393d;fontColor=#000000;fontFamily=Verdana;" parent="1" vertex="1">
                    <mxGeometry x="-510" y="210" width="255" height="560" as="geometry"/>
                </mxCell>
                <mxCell id="13" value="atributos" style="text;html=1;strokeColor=#36393d;fillColor=#f9f7ed;align=center;verticalAlign=middle;spacingLeft=4;spacingRight=4;overflow=hidden;rotatable=0;points=[[0,0.5],[1,0.5]];portConstraint=eastwest;fontColor=#000000;fontFamily=Verdana;" parent="12" vertex="1">
                    <mxGeometry y="30" width="255" height="20" as="geometry"/>
                </mxCell>
                <mxCell id="14" value="&lt;span style=&quot;background-color: initial;&quot;&gt;&lt;div&gt;&lt;span style=&quot;background-color: initial;&quot;&gt;shapefile: String&lt;/span&gt;&lt;br&gt;&lt;/div&gt;&lt;div&gt;municipio: String&lt;/div&gt;&lt;div&gt;situacao: String&lt;/div&gt;&lt;div&gt;ano: String&lt;/div&gt;&lt;div&gt;numero: String&lt;/div&gt;&lt;div&gt;interessado: String&lt;/div&gt;&lt;div&gt;denominacao: String&lt;/div&gt;&lt;div&gt;parcela: String&lt;/div&gt;&lt;div&gt;georreferenciamento: String&lt;/div&gt;&lt;div&gt;data_atual: Date&lt;/div&gt;&lt;div&gt;complemento: String&lt;/div&gt;&lt;div&gt;carta: String&lt;/div&gt;&lt;div&gt;zee_mzee: String&lt;/div&gt;&lt;div&gt;lista_municipios: String&lt;/div&gt;&lt;div&gt;lista_shapefiles: String&lt;/div&gt;&lt;div&gt;lista_zoneamento: String&lt;/div&gt;&lt;div&gt;modelo_despacho: String&lt;/div&gt;&lt;div&gt;nome_exportar_mapa: String&lt;/div&gt;&lt;div&gt;pasta_exportar_mapa: String&lt;/div&gt;&lt;div&gt;pasta_resultados: String&lt;/div&gt;&lt;div&gt;parametros_lista: List(String)&lt;/div&gt;&lt;div&gt;salvar_parametros: List(String)&lt;/div&gt;&lt;/span&gt;" style="text;html=1;strokeColor=#36393d;fillColor=#f9f7ed;align=left;verticalAlign=middle;spacingLeft=4;spacingRight=4;overflow=hidden;rotatable=0;points=[[0,0.5],[1,0.5]];portConstraint=eastwest;fontColor=#000000;fontFamily=Verdana;" parent="12" vertex="1">
                    <mxGeometry y="50" width="255" height="330" as="geometry"/>
                </mxCell>
                <mxCell id="18" value="operações" style="text;html=1;strokeColor=#36393d;fillColor=#f9f7ed;align=center;verticalAlign=middle;spacingLeft=4;spacingRight=4;overflow=hidden;rotatable=0;points=[[0,0.5],[1,0.5]];portConstraint=eastwest;fontColor=#000000;fontFamily=Verdana;" parent="12" vertex="1">
                    <mxGeometry y="380" width="255" height="20" as="geometry"/>
                </mxCell>
                <mxCell id="19" value="&lt;div&gt;+dicionarioDeParametros()&lt;/div&gt;&lt;div&gt;+salvarDadosFerramenta()&lt;/div&gt;&lt;div&gt;+carregarDadosFerramenta()&lt;/div&gt;&lt;div&gt;+atualizarCampos()&lt;/div&gt;&lt;div&gt;+atualizarDataFramePrincipal()&lt;/div&gt;&lt;div&gt;+atualizarMunicipio()&lt;/div&gt;&lt;div&gt;+debugMode()&lt;/div&gt;&lt;div&gt;+formatarDisplayNames()&lt;/div&gt;&lt;div&gt;+formatarStrings()&lt;/div&gt;&lt;div&gt;+adicionarValoresPadrao()&lt;/div&gt;" style="text;html=1;strokeColor=#36393d;fillColor=#f9f7ed;align=left;verticalAlign=middle;spacingLeft=4;spacingRight=4;overflow=hidden;rotatable=0;points=[[0,0.5],[1,0.5]];portConstraint=eastwest;fontColor=#000000;fontFamily=Verdana;" parent="12" vertex="1">
                    <mxGeometry y="400" width="255" height="160" as="geometry"/>
                </mxCell>
                <mxCell id="20" value="&lt;span style=&quot;font-weight: 700;&quot;&gt;ValoresConstantes&lt;/span&gt;" style="swimlane;fontStyle=0;align=center;verticalAlign=top;childLayout=stackLayout;horizontal=1;startSize=30;horizontalStack=0;resizeParent=1;resizeParentMax=0;resizeLast=0;collapsible=0;marginBottom=0;html=1;strokeWidth=2;fillColor=#f9f7ed;strokeColor=#36393d;fontColor=#000000;fontFamily=Verdana;" parent="1" vertex="1">
                    <mxGeometry x="-450" y="800" width="280" height="290" as="geometry"/>
                </mxCell>
                <mxCell id="21" value="atributos" style="text;html=1;strokeColor=#36393d;fillColor=#f9f7ed;align=center;verticalAlign=middle;spacingLeft=4;spacingRight=4;overflow=hidden;rotatable=0;points=[[0,0.5],[1,0.5]];portConstraint=eastwest;fontColor=#000000;fontFamily=Verdana;" parent="20" vertex="1">
                    <mxGeometry y="30" width="280" height="20" as="geometry"/>
                </mxCell>
                <mxCell id="22" value="&lt;div&gt;&lt;div&gt;&lt;div&gt;separador: String&lt;/div&gt;&lt;div&gt;diretorio_raiz: String&lt;/div&gt;&lt;div&gt;diretorio_estilos: String&lt;/div&gt;&lt;div&gt;arquivo_xlsx_planilha_indv: String&lt;/div&gt;&lt;div&gt;arquivo_xlsx_controle: String&lt;/div&gt;&lt;div&gt;arquivo_xlsx_controle_extra: String&lt;br&gt;&lt;/div&gt;&lt;div&gt;arquivo_docx_despacho: String&lt;br&gt;&lt;/div&gt;&lt;div&gt;arquivo_yaml: String&lt;/div&gt;&lt;div&gt;arquivo_json: String&lt;/div&gt;&lt;div&gt;camada_auxiliar_zee_2010: String&lt;/div&gt;&lt;div&gt;camada_auxiliar_mzee_2008: String&lt;/div&gt;&lt;div&gt;camada_auxiliar_area_limitante: String&lt;/div&gt;&lt;div&gt;opcoes_municipios:&amp;nbsp;&lt;span style=&quot;background-color: initial;&quot;&gt;List(String)&lt;/span&gt;&lt;/div&gt;&lt;div&gt;opcoes_situacao:&amp;nbsp;&lt;span style=&quot;background-color: initial;&quot;&gt;List(String)&lt;/span&gt;&lt;/div&gt;&lt;div&gt;opcoes_georreferenciamento:&amp;nbsp;&lt;span style=&quot;background-color: initial;&quot;&gt;List(String)&lt;/span&gt;&lt;/div&gt;&lt;div&gt;opcoes_ferramenta:&amp;nbsp;&lt;span style=&quot;background-color: initial;&quot;&gt;List(String)&lt;/span&gt;&lt;/div&gt;&lt;/div&gt;&lt;div&gt;&lt;br&gt;&lt;/div&gt;&lt;/div&gt;" style="text;html=1;strokeColor=#36393d;fillColor=#f9f7ed;align=left;verticalAlign=middle;spacingLeft=4;spacingRight=4;overflow=hidden;rotatable=0;points=[[0,0.5],[1,0.5]];portConstraint=eastwest;fontColor=#000000;fontFamily=Verdana;" parent="20" vertex="1">
                    <mxGeometry y="50" width="280" height="240" as="geometry"/>
                </mxCell>
                <mxCell id="112" style="edgeStyle=orthogonalEdgeStyle;rounded=0;html=1;strokeColor=#44474D;strokeWidth=2;startArrow=none;startFill=0;endArrow=diamondThin;endFill=1;startSize=18;endSize=18;" parent="1" source="28" target="45" edge="1">
                    <mxGeometry relative="1" as="geometry">
                        <Array as="points">
                            <mxPoint x="300" y="800"/>
                            <mxPoint x="300" y="800"/>
                        </Array>
                    </mxGeometry>
                </mxCell>
                <mxCell id="28" value="&lt;b&gt;Shapefile&lt;/b&gt;" style="swimlane;fontStyle=0;align=center;verticalAlign=top;childLayout=stackLayout;horizontal=1;startSize=30;horizontalStack=0;resizeParent=1;resizeParentMax=0;resizeLast=0;collapsible=0;marginBottom=0;html=1;strokeWidth=2;fillColor=#f9f7ed;strokeColor=#36393d;fontColor=#000000;fontFamily=Verdana;" parent="1" vertex="1">
                    <mxGeometry x="177" y="898" width="248" height="192" as="geometry"/>
                </mxCell>
                <mxCell id="32" value="operações" style="text;html=1;strokeColor=#36393d;fillColor=#f9f7ed;align=center;verticalAlign=middle;spacingLeft=4;spacingRight=4;overflow=hidden;rotatable=0;points=[[0,0.5],[1,0.5]];portConstraint=eastwest;fontColor=#000000;fontFamily=Verdana;" parent="28" vertex="1">
                    <mxGeometry y="30" width="248" height="20" as="geometry"/>
                </mxCell>
                <mxCell id="33" value="&lt;div&gt;+inserirFeicoesEmShapefile()&lt;/div&gt;&lt;div&gt;+apagarFeicoesEmShapefile()&lt;/div&gt;&lt;div&gt;+obterValoresColunaIntersecao()&lt;/div&gt;&lt;div&gt;+formatarColunasEmString()&lt;/div&gt;&lt;div&gt;+obterColunasShapefile()&lt;/div&gt;&lt;div&gt;+encontrarIntersecoesComShapefile()&lt;/div&gt;&lt;div&gt;+encontrarCartaCadastral()&lt;/div&gt;&lt;div&gt;+encontrarZoneamento()&lt;/div&gt;&lt;div&gt;+encontrarZoneamentoMacro()&lt;/div&gt;" style="text;html=1;strokeColor=#36393d;fillColor=#f9f7ed;align=left;verticalAlign=middle;spacingLeft=4;spacingRight=4;overflow=hidden;rotatable=0;points=[[0,0.5],[1,0.5]];portConstraint=eastwest;fontColor=#000000;fontFamily=Verdana;" parent="28" vertex="1">
                    <mxGeometry y="50" width="248" height="142" as="geometry"/>
                </mxCell>
                <mxCell id="111" style="edgeStyle=orthogonalEdgeStyle;rounded=0;html=1;strokeColor=#44474D;strokeWidth=2;startArrow=none;startFill=0;endArrow=diamondThin;endFill=1;startSize=18;endSize=18;" parent="1" source="34" target="45" edge="1">
                    <mxGeometry relative="1" as="geometry">
                        <Array as="points">
                            <mxPoint x="20" y="840"/>
                            <mxPoint x="270" y="840"/>
                        </Array>
                    </mxGeometry>
                </mxCell>
                <mxCell id="34" value="&lt;b&gt;Layout&lt;/b&gt;" style="swimlane;fontStyle=0;align=center;verticalAlign=top;childLayout=stackLayout;horizontal=1;startSize=30;horizontalStack=0;resizeParent=1;resizeParentMax=0;resizeLast=0;collapsible=0;marginBottom=0;html=1;strokeWidth=2;fillColor=#f9f7ed;strokeColor=#36393d;fontColor=#000000;fontFamily=Verdana;" parent="1" vertex="1">
                    <mxGeometry x="-102" y="868" width="254" height="222" as="geometry"/>
                </mxCell>
                <mxCell id="36" value="operações" style="text;html=1;strokeColor=#36393d;fillColor=#f9f7ed;align=center;verticalAlign=middle;spacingLeft=4;spacingRight=4;overflow=hidden;rotatable=0;points=[[0,0.5],[1,0.5]];portConstraint=eastwest;fontColor=#000000;fontFamily=Verdana;" parent="34" vertex="1">
                    <mxGeometry y="30" width="254" height="20" as="geometry"/>
                </mxCell>
                <mxCell id="37" value="&lt;div&gt;+afastarTextosLayout()&lt;/div&gt;&lt;div&gt;+aumentarEscala()&lt;/div&gt;&lt;div&gt;+atualizarDataFrameSituacao()&lt;/div&gt;&lt;div&gt;+carregarComponentes()&lt;/div&gt;&lt;div&gt;+aplicarSimbologiaIncidencias()&lt;/div&gt;&lt;div&gt;+aplicarSimbologiaPadrao()&lt;/div&gt;&lt;div&gt;+zoomDataFramePrincipal()&lt;/div&gt;&lt;div&gt;+atualizarVariaveisDinamicasProjeto()&lt;/div&gt;&lt;div&gt;+atualizarLayout()&lt;/div&gt;&lt;div&gt;+exportarMapa()&lt;/div&gt;&lt;div&gt;+exportarPDF()&lt;/div&gt;" style="text;html=1;strokeColor=#36393d;fillColor=#f9f7ed;align=left;verticalAlign=middle;spacingLeft=4;spacingRight=4;overflow=hidden;rotatable=0;points=[[0,0.5],[1,0.5]];portConstraint=eastwest;fontColor=#000000;fontFamily=Verdana;" parent="34" vertex="1">
                    <mxGeometry y="50" width="254" height="172" as="geometry"/>
                </mxCell>
                <mxCell id="113" style="edgeStyle=orthogonalEdgeStyle;rounded=0;html=1;strokeColor=#44474D;strokeWidth=2;startArrow=none;startFill=0;endArrow=diamondThin;endFill=1;startSize=18;endSize=18;" parent="1" source="38" target="45" edge="1">
                    <mxGeometry relative="1" as="geometry">
                        <Array as="points">
                            <mxPoint x="570" y="840"/>
                            <mxPoint x="330" y="840"/>
                        </Array>
                    </mxGeometry>
                </mxCell>
                <mxCell id="38" value="&lt;b&gt;Funcoes&lt;/b&gt;" style="swimlane;fontStyle=0;align=center;verticalAlign=top;childLayout=stackLayout;horizontal=1;startSize=30;horizontalStack=0;resizeParent=1;resizeParentMax=0;resizeLast=0;collapsible=0;marginBottom=0;html=1;strokeWidth=2;fillColor=#f9f7ed;strokeColor=#36393d;fontColor=#000000;fontFamily=Verdana;" parent="1" vertex="1">
                    <mxGeometry x="458" y="868" width="244" height="222" as="geometry"/>
                </mxCell>
                <mxCell id="40" value="operações" style="text;html=1;strokeColor=#36393d;fillColor=#f9f7ed;align=center;verticalAlign=middle;spacingLeft=4;spacingRight=4;overflow=hidden;rotatable=0;points=[[0,0.5],[1,0.5]];portConstraint=eastwest;fontColor=#000000;fontFamily=Verdana;" parent="38" vertex="1">
                    <mxGeometry y="30" width="244" height="20" as="geometry"/>
                </mxCell>
                <mxCell id="41" value="&lt;div&gt;+copiarParaClipboard()&lt;/div&gt;&lt;div&gt;+copiarParaAreaDeTransferencia()&lt;/div&gt;&lt;div&gt;+obterHorarioAtual()&lt;/div&gt;&lt;div&gt;+obterCartaCadastral()&lt;/div&gt;&lt;div&gt;+obterZoneamentos()&lt;/div&gt;&lt;div&gt;+obterMacroZoneamentos()&lt;/div&gt;&lt;div&gt;&lt;span style=&quot;background-color: initial;&quot;&gt;+exportaPlanilhaExcel()&lt;/span&gt;&lt;br&gt;&lt;/div&gt;&lt;div&gt;+mostrarPopUpPDF()&lt;/div&gt;&lt;div&gt;+mostrarPopUp()&lt;/div&gt;&lt;div&gt;+mostrarPopUpIncidenciasCopiadas()&lt;/div&gt;" style="text;html=1;strokeColor=#36393d;fillColor=#f9f7ed;align=left;verticalAlign=middle;spacingLeft=4;spacingRight=4;overflow=hidden;rotatable=0;points=[[0,0.5],[1,0.5]];portConstraint=eastwest;fontColor=#000000;fontFamily=Verdana;" parent="38" vertex="1">
                    <mxGeometry y="50" width="244" height="172" as="geometry"/>
                </mxCell>
                <mxCell id="42" value="&lt;b&gt;AutoMap&lt;/b&gt;" style="swimlane;fontStyle=0;align=center;verticalAlign=top;childLayout=stackLayout;horizontal=1;startSize=30;horizontalStack=0;resizeParent=1;resizeParentMax=0;resizeLast=0;collapsible=0;marginBottom=0;html=1;strokeWidth=2;fillColor=#f9f7ed;strokeColor=#36393d;fontColor=#000000;fontFamily=Verdana;" parent="1" vertex="1">
                    <mxGeometry x="220" y="629" width="160" height="132" as="geometry"/>
                </mxCell>
                <mxCell id="44" value="operações" style="text;html=1;strokeColor=#36393d;fillColor=#f9f7ed;align=center;verticalAlign=middle;spacingLeft=4;spacingRight=4;overflow=hidden;rotatable=0;points=[[0,0.5],[1,0.5]];portConstraint=eastwest;fontColor=#000000;fontFamily=Verdana;" parent="42" vertex="1">
                    <mxGeometry y="30" width="160" height="20" as="geometry"/>
                </mxCell>
                <mxCell id="45" value="&lt;div&gt;+getParameterInfo()&lt;/div&gt;&lt;div&gt;+isLicensed()&lt;/div&gt;&lt;div&gt;+updateParameters()&lt;/div&gt;&lt;div&gt;+updateMessages()&lt;/div&gt;&lt;div&gt;+execute()&lt;/div&gt;" style="text;html=1;strokeColor=#36393d;fillColor=#f9f7ed;align=left;verticalAlign=middle;spacingLeft=4;spacingRight=4;overflow=hidden;rotatable=0;points=[[0,0.5],[1,0.5]];portConstraint=eastwest;fontColor=#000000;fontFamily=Verdana;" parent="42" vertex="1">
                    <mxGeometry y="50" width="160" height="82" as="geometry"/>
                </mxCell>
                <mxCell id="116" style="edgeStyle=orthogonalEdgeStyle;rounded=0;html=1;strokeColor=#44474D;strokeWidth=2;startArrow=none;startFill=0;endArrow=diamondThin;endFill=1;startSize=18;endSize=18;" parent="1" source="52" target="14" edge="1">
                    <mxGeometry relative="1" as="geometry">
                        <Array as="points">
                            <mxPoint x="-70" y="550"/>
                            <mxPoint x="-70" y="550"/>
                        </Array>
                    </mxGeometry>
                </mxCell>
                <mxCell id="124" style="edgeStyle=orthogonalEdgeStyle;rounded=0;html=1;strokeColor=#44474D;strokeWidth=2;startArrow=none;startFill=0;endArrow=diamondThin;endFill=1;startSize=18;endSize=18;" parent="1" source="52" target="80" edge="1">
                    <mxGeometry relative="1" as="geometry">
                        <mxPoint x="-280" y="390" as="targetPoint"/>
                        <Array as="points">
                            <mxPoint y="531"/>
                        </Array>
                    </mxGeometry>
                </mxCell>
                <mxCell id="125" style="edgeStyle=orthogonalEdgeStyle;rounded=0;html=1;strokeColor=#44474D;strokeWidth=2;startArrow=none;startFill=0;endArrow=diamondThin;endFill=1;startSize=18;endSize=18;" parent="1" source="52" edge="1">
                    <mxGeometry relative="1" as="geometry">
                        <mxPoint x="218" y="640" as="targetPoint"/>
                        <Array as="points">
                            <mxPoint x="170" y="640"/>
                        </Array>
                    </mxGeometry>
                </mxCell>
                <mxCell id="131" style="edgeStyle=orthogonalEdgeStyle;rounded=0;html=1;strokeColor=#44474D;strokeWidth=2;startArrow=none;startFill=0;endArrow=diamondThin;endFill=1;startSize=18;endSize=18;" parent="1" source="52" target="90" edge="1">
                    <mxGeometry relative="1" as="geometry">
                        <Array as="points">
                            <mxPoint x="400" y="531"/>
                            <mxPoint x="400" y="531"/>
                        </Array>
                    </mxGeometry>
                </mxCell>
                <mxCell id="133" style="edgeStyle=orthogonalEdgeStyle;rounded=0;html=1;strokeColor=#44474D;strokeWidth=2;startArrow=none;startFill=0;endArrow=diamondThin;endFill=1;startSize=18;endSize=18;" parent="1" source="52" target="81" edge="1">
                    <mxGeometry relative="1" as="geometry">
                        <Array as="points">
                            <mxPoint x="190" y="440"/>
                            <mxPoint x="190" y="440"/>
                        </Array>
                    </mxGeometry>
                </mxCell>
                <mxCell id="52" value="&lt;b&gt;Logger&lt;/b&gt;" style="swimlane;fontStyle=0;align=center;verticalAlign=top;childLayout=stackLayout;horizontal=1;startSize=30;horizontalStack=0;resizeParent=1;resizeParentMax=0;resizeLast=0;collapsible=0;marginBottom=0;html=1;strokeWidth=2;fillColor=#f9f7ed;strokeColor=#36393d;fontColor=#000000;fontFamily=Verdana;" parent="1" vertex="1">
                    <mxGeometry x="110" y="490" width="160" height="82" as="geometry"/>
                </mxCell>
                <mxCell id="54" value="operações" style="text;html=1;strokeColor=#36393d;fillColor=#f9f7ed;align=center;verticalAlign=middle;spacingLeft=4;spacingRight=4;overflow=hidden;rotatable=0;points=[[0,0.5],[1,0.5]];portConstraint=eastwest;fontColor=#000000;fontFamily=Verdana;" parent="52" vertex="1">
                    <mxGeometry y="30" width="160" height="20" as="geometry"/>
                </mxCell>
                <mxCell id="55" value="&lt;div&gt;+setupLogger()&lt;/div&gt;" style="text;html=1;strokeColor=#36393d;fillColor=#f9f7ed;align=left;verticalAlign=middle;spacingLeft=4;spacingRight=4;overflow=hidden;rotatable=0;points=[[0,0.5],[1,0.5]];portConstraint=eastwest;fontColor=#000000;fontFamily=Verdana;" parent="52" vertex="1">
                    <mxGeometry y="50" width="160" height="32" as="geometry"/>
                </mxCell>
                <mxCell id="117" style="edgeStyle=orthogonalEdgeStyle;rounded=0;html=1;strokeColor=#44474D;strokeWidth=2;startArrow=none;startFill=0;endArrow=block;endFill=0;startSize=18;endSize=18;" parent="1" source="76" target="20" edge="1">
                    <mxGeometry relative="1" as="geometry">
                        <Array as="points">
                            <mxPoint x="-130" y="945"/>
                        </Array>
                    </mxGeometry>
                </mxCell>
                <mxCell id="76" value="&lt;b&gt;Planilha&lt;br&gt;&lt;/b&gt;" style="swimlane;fontStyle=0;align=center;verticalAlign=top;childLayout=stackLayout;horizontal=1;startSize=30;horizontalStack=0;resizeParent=1;resizeParentMax=0;resizeLast=0;collapsible=0;marginBottom=0;html=1;strokeWidth=2;fillColor=#f9f7ed;strokeColor=#36393d;fontColor=#000000;fontFamily=Verdana;" parent="1" vertex="1">
                    <mxGeometry x="-190" y="260" width="255" height="170" as="geometry"/>
                </mxCell>
                <mxCell id="77" value="atributos" style="text;html=1;strokeColor=#36393d;fillColor=#f9f7ed;align=center;verticalAlign=middle;spacingLeft=4;spacingRight=4;overflow=hidden;rotatable=0;points=[[0,0.5],[1,0.5]];portConstraint=eastwest;fontColor=#000000;fontFamily=Verdana;" parent="76" vertex="1">
                    <mxGeometry y="30" width="255" height="20" as="geometry"/>
                </mxCell>
                <mxCell id="78" value="&lt;div&gt;&lt;span style=&quot;background-color: initial;&quot;&gt;&lt;div&gt;colunas: List(String)&lt;/div&gt;&lt;/span&gt;&lt;/div&gt;" style="text;html=1;strokeColor=#36393d;fillColor=#f9f7ed;align=left;verticalAlign=middle;spacingLeft=4;spacingRight=4;overflow=hidden;rotatable=0;points=[[0,0.5],[1,0.5]];portConstraint=eastwest;fontColor=#000000;fontFamily=Verdana;" parent="76" vertex="1">
                    <mxGeometry y="50" width="255" height="30" as="geometry"/>
                </mxCell>
                <mxCell id="79" value="operações" style="text;html=1;strokeColor=#36393d;fillColor=#f9f7ed;align=center;verticalAlign=middle;spacingLeft=4;spacingRight=4;overflow=hidden;rotatable=0;points=[[0,0.5],[1,0.5]];portConstraint=eastwest;fontColor=#000000;fontFamily=Verdana;" parent="76" vertex="1">
                    <mxGeometry y="80" width="255" height="20" as="geometry"/>
                </mxCell>
                <mxCell id="80" value="&lt;div&gt;+buildXlsx()&lt;/div&gt;&lt;div&gt;+criarDados()&lt;/div&gt;&lt;div&gt;+adicionarParaControle()&lt;/div&gt;&lt;div&gt;+criarPlanilhaIndividual()&lt;/div&gt;" style="text;html=1;strokeColor=#36393d;fillColor=#f9f7ed;align=left;verticalAlign=middle;spacingLeft=4;spacingRight=4;overflow=hidden;rotatable=0;points=[[0,0.5],[1,0.5]];portConstraint=eastwest;fontColor=#000000;fontFamily=Verdana;" parent="76" vertex="1">
                    <mxGeometry y="100" width="255" height="70" as="geometry"/>
                </mxCell>
                <mxCell id="119" style="edgeStyle=orthogonalEdgeStyle;rounded=0;html=1;strokeColor=#44474D;strokeWidth=2;startArrow=none;startFill=0;endArrow=block;endFill=0;startSize=18;endSize=18;" parent="1" source="81" target="20" edge="1">
                    <mxGeometry relative="1" as="geometry">
                        <Array as="points">
                            <mxPoint x="288" y="230"/>
                            <mxPoint x="-220" y="230"/>
                        </Array>
                    </mxGeometry>
                </mxCell>
                <mxCell id="132" style="edgeStyle=orthogonalEdgeStyle;rounded=0;html=1;strokeColor=#44474D;strokeWidth=2;startArrow=none;startFill=0;endArrow=diamondThin;endFill=1;startSize=18;endSize=18;" parent="1" source="81" target="42" edge="1">
                    <mxGeometry relative="1" as="geometry">
                        <Array as="points">
                            <mxPoint x="340" y="520"/>
                            <mxPoint x="340" y="520"/>
                        </Array>
                    </mxGeometry>
                </mxCell>
                <mxCell id="81" value="&lt;b&gt;Despacho&lt;/b&gt;" style="swimlane;fontStyle=0;align=center;verticalAlign=top;childLayout=stackLayout;horizontal=1;startSize=30;horizontalStack=0;resizeParent=1;resizeParentMax=0;resizeLast=0;collapsible=0;marginBottom=0;html=1;strokeWidth=2;fillColor=#f9f7ed;strokeColor=#36393d;fontColor=#000000;fontFamily=Verdana;" parent="1" vertex="1">
                    <mxGeometry x="152" y="340" width="255" height="80" as="geometry"/>
                </mxCell>
                <mxCell id="84" value="operações" style="text;html=1;strokeColor=#36393d;fillColor=#f9f7ed;align=center;verticalAlign=middle;spacingLeft=4;spacingRight=4;overflow=hidden;rotatable=0;points=[[0,0.5],[1,0.5]];portConstraint=eastwest;fontColor=#000000;fontFamily=Verdana;" parent="81" vertex="1">
                    <mxGeometry y="30" width="255" height="20" as="geometry"/>
                </mxCell>
                <mxCell id="85" value="&lt;div&gt;+buildDocx()&lt;/div&gt;" style="text;html=1;strokeColor=#36393d;fillColor=#f9f7ed;align=left;verticalAlign=middle;spacingLeft=4;spacingRight=4;overflow=hidden;rotatable=0;points=[[0,0.5],[1,0.5]];portConstraint=eastwest;fontColor=#000000;fontFamily=Verdana;" parent="81" vertex="1">
                    <mxGeometry y="50" width="255" height="30" as="geometry"/>
                </mxCell>
                <mxCell id="110" style="edgeStyle=orthogonalEdgeStyle;rounded=0;html=1;strokeColor=#44474D;strokeWidth=2;startArrow=none;startFill=0;endArrow=diamondThin;endFill=1;startSize=18;endSize=18;" parent="1" source="86" target="45" edge="1">
                    <mxGeometry relative="1" as="geometry">
                        <mxPoint x="400" y="750" as="targetPoint"/>
                        <Array as="points">
                            <mxPoint x="585" y="700"/>
                        </Array>
                    </mxGeometry>
                </mxCell>
                <mxCell id="86" value="&lt;b&gt;Database&lt;/b&gt;" style="swimlane;fontStyle=0;align=center;verticalAlign=top;childLayout=stackLayout;horizontal=1;startSize=30;horizontalStack=0;resizeParent=1;resizeParentMax=0;resizeLast=0;collapsible=0;marginBottom=0;html=1;strokeWidth=2;fillColor=#f9f7ed;strokeColor=#36393d;fontColor=#000000;fontFamily=Verdana;" parent="1" vertex="1">
                    <mxGeometry x="447" y="340" width="255" height="260" as="geometry"/>
                </mxCell>
                <mxCell id="87" value="atributos" style="text;html=1;strokeColor=#36393d;fillColor=#f9f7ed;align=center;verticalAlign=middle;spacingLeft=4;spacingRight=4;overflow=hidden;rotatable=0;points=[[0,0.5],[1,0.5]];portConstraint=eastwest;fontColor=#000000;fontFamily=Verdana;" parent="86" vertex="1">
                    <mxGeometry y="30" width="255" height="20" as="geometry"/>
                </mxCell>
                <mxCell id="88" value="&lt;span style=&quot;background-color: initial;&quot;&gt;&lt;div&gt;DBNAME: String&lt;/div&gt;&lt;div&gt;USER: String&lt;/div&gt;&lt;div&gt;PASSWORD: String&lt;/div&gt;&lt;div&gt;HOST: String&lt;/div&gt;&lt;div&gt;PORT: String&lt;/div&gt;&lt;div&gt;colunas_fc_database: List(String)&lt;/div&gt;&lt;/span&gt;" style="text;html=1;strokeColor=#36393d;fillColor=#f9f7ed;align=left;verticalAlign=middle;spacingLeft=4;spacingRight=4;overflow=hidden;rotatable=0;points=[[0,0.5],[1,0.5]];portConstraint=eastwest;fontColor=#000000;fontFamily=Verdana;" parent="86" vertex="1">
                    <mxGeometry y="50" width="255" height="100" as="geometry"/>
                </mxCell>
                <mxCell id="89" value="operações" style="text;html=1;strokeColor=#36393d;fillColor=#f9f7ed;align=center;verticalAlign=middle;spacingLeft=4;spacingRight=4;overflow=hidden;rotatable=0;points=[[0,0.5],[1,0.5]];portConstraint=eastwest;fontColor=#000000;fontFamily=Verdana;" parent="86" vertex="1">
                    <mxGeometry y="150" width="255" height="20" as="geometry"/>
                </mxCell>
                <mxCell id="90" value="&lt;div&gt;+carregarDadosYaml()&lt;/div&gt;&lt;div&gt;+adicionarFeatureclass()&lt;/div&gt;&lt;div&gt;+atualizarBancoDeDadosPostgreSQL()&lt;/div&gt;&lt;div&gt;+printall()&lt;/div&gt;&lt;div&gt;+lerDadosBanco()&lt;/div&gt;" style="text;html=1;strokeColor=#36393d;fillColor=#f9f7ed;align=left;verticalAlign=middle;spacingLeft=4;spacingRight=4;overflow=hidden;rotatable=0;points=[[0,0.5],[1,0.5]];portConstraint=eastwest;fontColor=#000000;fontFamily=Verdana;" parent="86" vertex="1">
                    <mxGeometry y="170" width="255" height="90" as="geometry"/>
                </mxCell>
                <mxCell id="122" style="edgeStyle=orthogonalEdgeStyle;rounded=0;html=1;strokeColor=#44474D;strokeWidth=2;startArrow=none;startFill=0;endArrow=diamondThin;endFill=1;startSize=18;endSize=18;" parent="1" source="80" target="45" edge="1">
                    <mxGeometry relative="1" as="geometry">
                        <mxPoint x="200" y="700" as="targetPoint"/>
                        <Array as="points">
                            <mxPoint x="-63" y="730"/>
                        </Array>
                    </mxGeometry>
                </mxCell>
                <mxCell id="130" style="edgeStyle=orthogonalEdgeStyle;rounded=0;html=1;strokeColor=#44474D;strokeWidth=2;startArrow=none;startFill=0;endArrow=block;endFill=0;startSize=18;endSize=18;" parent="1" source="14" target="22" edge="1">
                    <mxGeometry relative="1" as="geometry">
                        <Array as="points">
                            <mxPoint x="-540" y="435"/>
                            <mxPoint x="-540" y="970"/>
                        </Array>
                    </mxGeometry>
                </mxCell>
            </root>
        </mxGraphModel>
    </diagram>
</mxfile>